<?xml version="1.0" encoding="utf-8"?>
<!-- Generator: Adobe Illustrator 21.0.0, SVG Export Plug-In . SVG Version: 6.00 Build 0)  -->
<svg version="1.1" id="Layer_1" xmlns="http://www.w3.org/2000/svg" xmlns:xlink="http://www.w3.org/1999/xlink" x="0px" y="0px"
	 viewBox="0 0 1080 1920" style="enable-background:new 0 0 1080 1920;" xml:space="preserve">
<style type="text/css">
	.st0{fill:#EAD6C1;stroke:#000000;stroke-miterlimit:10;}
	.st1{fill:#FFFFFF;stroke:#000000;stroke-width:9.920938e-02;}
	.st2{stroke:#000000;stroke-width:9.920938e-02;}
	.st3{font-family:'ArialMT';}
	.st4{font-size:23.7591px;}
	.st5{font-size:22.9729px;}
	.st6{fill:none;stroke:#000000;stroke-width:26.5278;stroke-miterlimit:10;}
	.st7{fill:none;stroke:#000000;stroke-width:13.2639;stroke-miterlimit:10;}
	.st8{fill:none;stroke:#000000;stroke-width:17.6852;stroke-miterlimit:10;}
	.st9{fill:#C7B299;stroke:#000000;stroke-width:4.9286;stroke-miterlimit:10;}
	.st10{fill:none;stroke:#000000;stroke-width:7.0419;stroke-miterlimit:10;}
	.st11{fill:none;stroke:#000000;stroke-width:8.8426;stroke-miterlimit:10;}
	.st12{fill:none;stroke:#000000;stroke-width:4.4213;stroke-miterlimit:10;}
	.st13{fill:#FFFFFF;stroke:#000000;stroke-width:22.1065;stroke-miterlimit:10;}
	.st14{font-family:'NewRocker-Regular';}
	.st15{font-size:36px;}
	.st16{font-size:30px;}
	.st17{font-size:29px;}
	.st18{fill:#EAD6C1;stroke:#000000;stroke-width:0.6782;stroke-miterlimit:10;}
	.st19{fill:#EAD6C1;stroke:#000000;stroke-width:0.7211;stroke-miterlimit:10;}
	.st20{fill:#EAD6C1;stroke:#000000;stroke-width:0.5342;stroke-miterlimit:10;}
	.st21{fill:#EAD6C1;stroke:#000000;stroke-width:0.5811;stroke-miterlimit:10;}
</style>
<g>
	<polygon class="st0" points="785.3,131.4 723.7,100.2 690.2,166.2 753.8,198.5 728.9,144.6 	"/>
	<polygon class="st0" points="277.5,131 339,99.8 372.6,165.8 309,198.1 333.9,144.2 	"/>
	<g>
		<g>
			<path class="st0" d="M710.7,155.8c-111.8-56.8-244-56.8-355.8,0c-11.2-22.1-22.5-44.3-33.7-66.4c133-67.5,290.3-67.5,423.3,0
				C733.2,111.6,722,133.7,710.7,155.8z"/>
			<g>
				<path d="M398.7,117.5c-1.6-2.3-4.4-3.6-8-3.9c0.8-1.6-0.1-3.7-2.6-11.6c-0.3,0-2.7-0.7-5-1.5c-1.9,2.2-3.7,4.3-5.6,6.5
					c2,4.3,4.1,8.2,6.4,11.7c-2.1-0.1-3.6,0.2-4.9,0.7c-2.4,0.9-4,2.6-7.1,3.9c-0.4,0.2-0.8,0.3-1.1,0.4c2.2-2.8,2.6-7.5,1.2-11
					c-1.3-3.1-3.4-6-6.1-7.2c0.7-4,0.3-6.8-0.9-9.6c-0.4-0.9-1-2.4-1.5-3.3c-2.9,0.4-4.7-0.2-6.7-3.5c2.8-0.5,4.1-0.5,7.7-2
					c3-1.2,3.2-1.3,6.8-3.3c-1.1,4.6-0.1,7.5,4,18.5c4-4.2,7.6-10.5,7.9-10.8c-0.4-1-0.7-2.9-1.4-4.8c-0.7-1.9-2-4.3-4.1-5
					c2.1,0.1,4.9-0.8,5.6-1c2.2-0.8,3.1-3.1,6.6-4.2c0.2-0.1,0.4-0.1,0.6-0.2c-1.7,2.8-1.4,6.5-0.4,9.2c0.7,2,1.8,3.8,2.9,5
					c-0.7,0.4-3,2.6-5,4.8c2.2,0.9,5.6,1.2,8,1.7c-0.1,0.8,0.3,2.7,1.1,4.9c1.1,3.2,2.9,6.9,5,7.8
					C399.5,112.6,398.8,114.5,398.7,117.5z"/>
				<path d="M423.4,92.8c1.6,6.1,2.5,6.9,4.4,6.8c0,0.2,0.1,0.4,0.1,0.5c-1.8,1.2-3.9,4.7-4.3,6.5c-1.7-0.5-3.4-1.7-4.6-3
					c-0.8,1.7-1.7,3.4-2.5,5c-3.1-0.7-6.5-0.5-10.5,0.7c0.2-1.9-0.7-4.6-1.5-7.1c-0.5-1.5-1.1-2.8-2-3.8c0.8-0.2,1.7-0.4,2.6-0.7
					c4.1-1.3,8.5-3.4,10.4-5c-0.4-1.6-0.9-3.2-1.3-4.8c-2.2,1.7-5,3.3-6.8,3.8c-2.5,0.7-4.5,0.5-6.7-3c0.4-0.1,0.4-0.1,1.3-0.4
					c5.2-1.6,8.9-3.8,10.8-5.5c3.1,1.6,5.9,2,9.6,1.1C421.9,86,422.1,88,423.4,92.8z M412.8,103.4c1.6-0.4,3.1-0.9,5.7-1
					c-0.6-2.3-1.3-4.5-1.9-6.8c-1.9,1.3-3.8,2.4-5.1,2.9C411.9,100.2,412.3,101.8,412.8,103.4z"/>
				<path d="M431.1,104.3c1.6-1.3,2-3.6,1.4-6.2c-2-8.3-4.1-16.6-6.1-24.9c-0.8-3.3-1.5-4.9-3.5-6.8c0.9,0,1.9-0.1,2.8-0.3
					c2.6-0.6,5.2-2,8.2-4.1c-1.2,1.9-1.1,4.7-0.3,8.1c1.8,7.9,3.6,15.7,5.4,23.6c1.2,5.3,2.2,6.3,6,9.1c-0.1,0.2-0.1,0.3-0.2,0.5
					c-4.2-0.8-5.1-0.7-6.9-1.7c-1.8,1.3-4.3,2.5-6.5,3C431.2,104.5,431.2,104.4,431.1,104.3z"/>
				<path d="M465.2,73.6c1.6-0.3,2.4-0.4,3.2-0.6c-0.1,0.4-0.1,0.7-0.1,1.1c0.7-0.7,1.5-1.5,2.2-2.2c1.1-0.2,2.3-0.3,3.4-0.5
					c-1.9,1.8-3.7,3.7-5.6,5.5c0.1,1.1,0.3,2.4,0.4,3.7c0.5,3.6,1.4,7,2.5,10.2c-3.6,0.9-8,4.1-10.5,7.4c-1.8-0.9-8.6-1.1-11.8-0.5
					c-0.6,0.7-1.3,1.5-1.9,2.2c-1.1,0.2-2.1,0.5-3.2,0.7c1.4-1.7,2.9-3.4,4.3-5.1c0-1.2-0.2-2.8-0.5-4.6c-0.8-3.8-2.7-9.5-3.4-10
					c2.8-1,6.3-3.9,9.1-7.4C459,74.1,462.3,74.1,465.2,73.6z M454.6,88.5c2.3-2.6,4.7-5.2,7.2-7.7c-0.1-0.7-0.2-1.4-0.4-2.1
					c-3.4,0.3-7.3,0.3-9.1-0.2c0.9,2.7,1.5,5,1.9,7.4C454.3,86.7,454.5,87.6,454.6,88.5z M462.1,83.4c-2.4,2.6-4.8,5.2-7.1,7.8
					c0.1,0.5,0.1,1,0.2,1.5c2.5-0.2,5.8-0.3,8.5,0C463.1,89.6,462.6,86.5,462.1,83.4z"/>
				<path d="M498.9,65.5c0.1,1.9,0.6,3.9,1.3,5.7c3.6-1.3,7.6-1.7,15.8-2.3c-0.1,2.7-0.3,6.3-0.1,10.1c0.1,3.6,0.6,7.5,1.6,10.8
					c-3.8,0.1-7.5,1.5-9.5,3.5c-3.2-1.5-7.6-3.2-17.4-2.7c1.5-2,2.4-4,2.2-6.2c-0.1-0.7-0.2-1.3-0.5-2.1c2.2-0.2,7.8,2.6,15.3,5.3
					c0.6-1.7,0.8-4.9,0.7-7.8c-0.1-2.6-0.6-5-1.5-5.9c-4.1,0.5-10.1,1.9-14.8,3.4c0.2-2.8,0.3-6.2,0-9.5c-0.3-3.7-1.4-7.4-4.1-9.9
					c0.8,0,2.2,0.1,4.3-0.1c4.4-0.4,7.4-1.8,9.4-5.2c2.5,1.2,7.1,2.6,11.9,2.4c1.5-0.1,3.1-0.4,4.5-0.8c-1.4,3.5-4.2,6.4-7.3,6.6
					c-2.2,0.1-7.5-0.9-10.3-2.1C499.1,60.8,498.7,63.2,498.9,65.5z"/>
				<path d="M521.9,91.8c1.9-0.9,2.8-3.1,2.7-5.7c-0.2-8.5-0.3-17.1-0.5-25.6c-0.1-3.3-0.4-5.1-1.9-7.4c0.9,0.2,1.8,0.3,2.8,0.3
					c2.6,0,5.4-0.8,8.8-2.2c-1.6,1.6-2.1,4.4-2.1,7.8c0,8.1,0,16.1,0.1,24.2c0,5.5,0.7,6.6,3.8,10.2c-0.1,0.1-0.2,0.3-0.3,0.4
					c-3.9-1.7-4.8-1.8-6.4-3.2c-2.1,0.8-4.7,1.5-6.9,1.5C521.9,92,521.9,91.9,521.9,91.8z"/>
				<path d="M559.5,69.2c1.7,0.1,2.4,0.1,3.2,0.1c-0.6,2.1-1,4.7-1.2,7.6c-0.2,3.6-0.1,7.1,0.3,10.5c-3.7,0.1-8.7,2.3-11.8,5
					c-1.6-1.2-8.5-3-11.6-3c-0.4,0-0.9,0-1.2,0.1c1-0.8,1.5-3.2,1.6-7c0.1-3.9-0.6-9.8-1.2-10.5c3-0.4,6.9-2.5,10.4-5.3
					C553.4,68.4,556.5,69,559.5,69.2z M554.7,73.3c-3.4-0.4-7.2-1.3-8.9-2.1c0.3,2.8,0.4,5.2,0.3,7.6c-0.1,1.9-0.3,4.5-0.5,6.8
					c2.5,0.3,5.7,1,8.2,1.8C554.2,82.7,554.4,78,554.7,73.3z"/>
				<path d="M577.3,73.7c-0.4,3.7-0.8,7.3-1.1,11c-0.3,3.4,1.6,5.3,4.3,5.8c0,0.2-0.1,0.5-0.1,0.7c-2.5,0.5-6.1,1.8-7.5,2.8
					c-1.5-1.1-3.4-2.2-4.5-2.8c0.5-6.2,1.1-12.4,1.6-18.5c-1.6-0.1-3.1-0.3-4.7-0.4c0-0.2,0-0.4,0-0.5c1.6-0.4,3.3-1.1,5-2.2
					c0-0.5,0.1-1.1,0.1-1.6c0.1-1.1,0-5.1-0.5-5.9c3.4,0.1,6.3-0.7,9.8-1.9c-0.7,1.2-1.6,6.2-1.8,7.4c-0.1,0.9-0.2,1.8-0.3,2.6
					c2.7,0.3,5.4,0.6,8.1,0.9c0,0.1,0,0.1,0,0.2c-1.3,0.9-2.5,2.4-3.1,3.6C580.9,74.5,579.1,74.1,577.3,73.7z"/>
				<path d="M594.9,78.2c-0.2,1.3-0.3,2.7-0.3,3.8c3-0.5,6-0.4,12.4,0.3c-0.3,1.1-0.7,2.8-1,5c-0.6,3.7-1,6.8-1,8.4
					c-4.4-0.8-9.7-0.4-12.3,0.8c-1.5-1.7-3.6-2.7-9-3.6c0.4-2,1.5-4.3,2.9-5.5c1.7,0.2,5,1.8,10.6,5c0.8-2,1.2-3.7,1.5-5.5
					c0.2-1.2,0.2-1.6,0.3-2c-3.3-0.3-8.1-0.1-12,0.3c0.6-2.8,0.9-4.1,1-5.4c0.4-3,0.3-5.2-0.2-7.2c3,0.3,6,0,11.3-1.1
					c2.1,1.4,5.6,2.6,10.4,3.8c-1.9,2.6-3.7,3.5-6.2,3.1c-2.2-0.4-5.8-1.9-7.8-3.3C595.2,76,595.1,76.9,594.9,78.2z"/>
				<path d="M621.2,83.7c2.2-2,4.3-4.4,6.2-7.1c1.2,1.1,3.9,2.6,6.9,4c-1,2.6-2.6,4.7-4.4,5.9c-1.1-0.9-2.2-1.7-3.3-2.5
					c-0.2,0-0.4-0.1-0.7-0.1c-1.9,1.5-3.8,3.1-5.7,4.6c-0.5,2.3-0.9,4.5-1.4,6.8s0.1,3.3,2.3,4.1c-0.1,0.3-0.1,0.6-0.2,0.8
					c-3.8-0.8-7.6-1.6-11.5-2.3c0-0.2,0.1-0.5,0.1-0.7c1-0.1,1.7-1.1,2.1-2.9c1.1-5.7,2.2-11.4,3.3-17.1c-0.6-0.4-1.3-0.8-1.9-1.2
					c0-0.2,0.1-0.4,0.1-0.5c2.7,0.1,6.2,0.2,8.7,0.2c0.2,0.6,0.5,1.1,0.7,1.7C622.1,79.3,621.7,81.5,621.2,83.7z"/>
				<path d="M635.6,80.7c3.2,0.4,8.6,0.8,10.7,0.6c-0.9,2.1-1.3,3.3-2.2,6.7c-0.9,3.3-1.7,6.5-2.6,9.8c0.6,0.7,1.2,1.4,1.8,2.2
					c1.9-0.2,3.8-0.4,5.7-0.6c0.7-2.5,1.4-5,2.1-7.5c1.3-4.5,1.2-5.4-0.8-6.5c0.1-0.2,0.1-0.4,0.2-0.6c3.6,0.8,7.5,1.1,10.3,0.8
					c-1.1,3.8-2.3,7.5-3.4,11.3c-1.8,5.9-1.8,7.5,0,8.4c-0.1,0.2-0.1,0.4-0.2,0.5c-2,0.1-5.8,1.9-7.1,3.3c-1.8-2.5-2.3-4-2-6.4
					c-4.8,0.8-7.1,1.5-9.9,3c-2.3-3-3.3-4.2-5.7-6.1c0.7-0.6,2.6-5.8,3.6-9.9c1.2-4.8,1-6.8-0.9-8.5C635.4,81,635.5,80.9,635.6,80.7
					z"/>
				<path d="M675.2,91.6c-2,5.8-4,11.6-6,17.4c-0.7,2-0.6,3.3,0.2,3.9c-0.1,0.2-0.2,0.5-0.2,0.7c-2.3-0.4-4.3-0.6-6.6-0.8
					c-0.1,0-0.2-0.1-0.3-0.1c-0.7-1.9-0.7-3.8-0.1-5.7c1.8-5.5,3.6-11,5.4-16.6c-0.6-0.5-1.2-0.9-1.8-1.4c0.1-0.2,0.1-0.3,0.2-0.5
					c2.7,0.5,6.2,1,8.7,1.3C674.9,90.5,675.1,91,675.2,91.6z M676.5,76.4c0.7,1.3,3.3,4.4,4.1,5.4c-3.1,0.6-5.2,1.3-7.2,3
					c-0.6-1.2-3.1-4.2-4-5.3C671.4,78,673.9,76.6,676.5,76.4z"/>
				<path d="M688.3,100.8c3.7-0.5,6.7-1.3,10.2-2.5c1.7,3,2.7,4.6,5.1,7c-1.2,1.4-2.3,3.2-4.9,9.6c-2.3,5.4-2.6,6.6-2.9,8
					c-3-0.3-7.2,0.7-9.8,1.8c-0.1-0.1-0.1-0.3-0.2-0.4c1.7-2.2,4.5-7.3,5.1-8.7c1.4-3.5,2.8-7.1,4.2-10.6c-0.1-0.3-0.3-0.6-0.4-0.9
					c-2.5,0-5.1,0-7.6,0c-1.3,3.3-2.6,6.7-3.9,10c-0.8,2-0.7,3.3,0.1,3.9c-0.1,0.2-0.2,0.5-0.3,0.7c-3.2-1.2-6.3-2.4-9.5-3.6
					c0.1-0.2,0.2-0.5,0.3-0.7c0.9,0,1.9-0.8,2.5-2.5c2-5.5,4-10.9,6-16.4c-0.6-0.5-1.2-1-1.8-1.5c0.1-0.2,0.1-0.3,0.2-0.5
					c2.7,0.6,6.2,1.2,8.7,1.6c0.2,0.6,0.3,1.2,0.4,1.8C689.3,98.2,688.8,99.5,688.3,100.8z"/>
			</g>
		</g>
	</g>
</g>
<g>
	<g id="g6" transform="translate(204.0,204.0) scale(1,-1)">
		<path id="DWire003" class="st1" d="M33.7-126.8l-66.9-13.9l-13.5,13.3L33.7-126.8z"/>
	</g>
	<g id="g9" transform="translate(204.0,204.0) scale(1,-1)">
		<path id="DWire" class="st2" d="M-47.2-47l0.6-80.3L-60.1-114L-47.2-47z"/>
	</g>
	<g id="g12" transform="translate(204.0,204.0) scale(1,-1)">
		<path id="DWire005" class="st1" d="M-46-207.7l-13.9,66.9l13.3,13.5L-46-207.7z"/>
	</g>
	<g id="g15" transform="translate(204.0,204.0) scale(1,-1)">
		<path id="DWire004" class="st2" d="M-46-207.7l-0.6,80.3l13.5-13.3L-46-207.7z"/>
	</g>
	<g id="g18" transform="translate(204.0,204.0) scale(1,-1)">
		<path id="DWire002" class="st2" d="M33.7-126.8l-80.3-0.6l13.3,13.5L33.7-126.8z"/>
	</g>
	<g id="g21" transform="translate(204.0,204.0) scale(1,-1)">
		<path id="DWire001" class="st1" d="M-47.2-47l13.9-66.9l-13.3-13.5L-47.2-47z"/>
	</g>
	<g id="g24" transform="matrix(4.9283007,0,0,-4.9283007,717.84236,158.49327)">
		<text id="text26" transform="matrix(0.2029 1.564434e-03 1.564434e-03 -0.2029 -135.7904 -36.908)" class="st3 st4">W</text>
	</g>
	<g id="g28" transform="matrix(4.9283007,0,0,-4.9283007,276.88791,622.59718)">
		<text id="text30" transform="matrix(0.2029 1.564434e-03 1.564434e-03 -0.2029 -26.163 76.5655)" class="st3 st4">N</text>
	</g>
	<g id="g32" transform="matrix(4.7657578,0,0,-4.7657578,226.67519,-302.19095)">
		<text id="text34" transform="matrix(0.2098 1.617976e-03 1.617976e-03 -0.2098 -15.9686 -154.7142)" class="st3 st5">S</text>
	</g>
	<g id="g36" transform="matrix(4.9283007,0,0,-4.9283007,-223.70429,154.00053)">
		<text id="text38" transform="matrix(0.2029 1.564434e-03 1.564434e-03 -0.2029 94.5901 -37.5875)" class="st3 st4">E</text>
	</g>
	<g id="g40" transform="translate(204.0,204.0) scale(1,-1)">
		<path id="DWire006" class="st2" d="M-59.9-140.9L-127-128l80.3,0.6L-59.9-140.9z"/>
	</g>
	<g id="g43" transform="translate(204.0,204.0) scale(1,-1)">
		<path id="DWire007" class="st1" d="M-127-128l66.9,13.9l13.5-13.3L-127-128z"/>
	</g>
	<g id="g46" transform="translate(204.0,204.0) scale(1,-1)">
		<path id="DWire016" class="st2" d="M-70.7-116.3L-81-93.6l20.9-20.5L-70.7-116.3z"/>
	</g>
	<g id="g49" transform="translate(204.0,204.0) scale(1,-1)">
		<path id="DWire017" class="st1" d="M-60.1-114.1L-81-93.6l22.9-10L-60.1-114.1z"/>
	</g>
	<g id="g52" transform="translate(204.0,204.0) scale(1,-1)">
		<path id="DWire018" class="st2" d="M-35.5-103.4L-12.8-93l-20.5-20.9L-35.5-103.4z"/>
	</g>
	<g id="g55" transform="translate(204.0,204.0) scale(1,-1)">
		<path id="DWire019" class="st1" d="M-12.8-93l-10-22.9l-10.6,2L-12.8-93z"/>
	</g>
	<g id="g58" transform="translate(204.0,204.0) scale(1,-1)">
		<path id="DWire020" class="st2" d="M-22.6-138.5l10.3-22.7l-20.9,20.5L-22.6-138.5z"/>
	</g>
	<g id="g61" transform="translate(204.0,204.0) scale(1,-1)">
		<path id="DWire021" class="st1" d="M-12.3-161.2l-22.9,10l2,10.6L-12.3-161.2z"/>
	</g>
	<g id="g64" transform="translate(204.0,204.0) scale(1,-1)">
		<path id="DWire022" class="st2" d="M-80.4-161.7l20.5,20.9l2.2-10.5L-80.4-161.7z"/>
	</g>
	<g id="g67" transform="translate(204.0,204.0) scale(1,-1)">
		<path id="DWire023" class="st1" d="M-80.4-161.7l10,22.9l10.6-2L-80.4-161.7z"/>
	</g>
	<g id="g94" transform="translate(204.0,204.0) scale(1,-1)">
	</g>
</g>
<g>
	
		<rect x="710.2" y="849" transform="matrix(0.6668 -0.7452 0.7452 0.6668 -419.8351 874.3449)" class="st6" width="115.3" height="115.3"/>
	
		<ellipse transform="matrix(0.7224 -0.6915 0.6915 0.7224 -309.76 942.7872)" class="st7" cx="1019.3" cy="857.2" rx="26.1" ry="26.1"/>
	<polyline class="st7" points="787.1,1178 1000.4,875.3 993.3,862.3 994.9,848.6 892.1,764.2 529.1,353.5 514.2,368.6 494.8,376.5 
		475.6,378.6 17.4,817.2 319.7,1160.3 584.3,1378.7 615.1,1380.2 691.6,1292.2 	"/>
	
		<rect x="699.4" y="1218.6" transform="matrix(0.645 -0.7642 0.7642 0.645 -691.0421 1038.1467)" class="st8" width="144.9" height="88.4"/>
	
		<rect x="784.8" y="1298.7" transform="matrix(0.6978 -0.7163 0.7163 0.6978 -721.7373 984.9764)" class="st9" width="43.3" height="98.2"/>
	
		<rect x="543.1" y="418.8" transform="matrix(0.7482 -0.6635 0.6635 0.7482 -187.2327 523.0005)" class="st7" width="104.5" height="178.7"/>
	
		<rect x="629.8" y="564.9" transform="matrix(0.7482 -0.6635 0.6635 0.7482 -230.6261 604.4707)" class="st7" width="102.4" height="82.4"/>
	
		<rect x="675.4" y="628.6" transform="matrix(0.7482 -0.6635 0.6635 0.7482 -242.161 638.5983)" class="st10" width="89.6" height="19.4"/>
	
		<rect x="736.3" y="625.2" transform="matrix(0.7482 -0.6635 0.6635 0.7482 -283.9586 705.5466)" class="st7" width="102.4" height="203.3"/>
	
		<rect x="724.6" y="688.9" transform="matrix(0.7482 -0.6635 0.6635 0.7482 -277.5292 694.2028)" class="st7" width="102.4" height="47.7"/>
	
		<rect x="492.1" y="354" transform="matrix(0.7482 -0.6635 0.6635 0.7482 -130.4739 448.183)" class="st11" width="66.3" height="84"/>
	<polygon class="st7" points="180.5,1003.4 247.5,941.7 456.6,1161.4 657.7,948.1 718.1,1015.1 465.9,1279.8 315.3,1159.6 	"/>
	<line class="st7" x1="809.6" y1="863.9" x2="893.3" y2="768.9"/>
	<polyline class="st7" points="130,852.2 202.6,935.7 156.7,976 	"/>
	
		<rect x="518.4" y="1058.2" transform="matrix(0.6922 -0.7217 0.7217 0.6922 -618.7952 753.5833)" class="st7" width="111.4" height="88.1"/>
	
		<rect x="194.7" y="620.6" transform="matrix(0.7224 -0.6915 0.6915 0.7224 -377.0922 358.3172)" class="st7" width="126.1" height="56.4"/>
	
		<rect x="232" y="633.7" transform="matrix(0.7224 -0.6915 0.6915 0.7224 -389.884 352.6524)" class="st7" width="24.5" height="56.3"/>
	<path class="st7" d="M174.9,818.4"/>
	<line class="st7" x1="132.4" y1="815.6" x2="260.2" y2="693.4"/>
	
		<rect x="566.6" y="1171" transform="matrix(0.7224 -0.6915 0.6915 0.7224 -657.28 728.6875)" class="st12" width="24.5" height="23.9"/>
	
		<ellipse transform="matrix(0.7224 -0.6915 0.6915 0.7224 -600.5786 597.6567)" class="st12" cx="444" cy="1046.8" rx="34.5" ry="29.6"/>
	
		<ellipse transform="matrix(0.7224 -0.6915 0.6915 0.7224 -599.0829 594.7141)" class="st12" cx="441.1" cy="1043.5" rx="15.2" ry="11.3"/>
	<line class="st7" x1="72.4" y1="873.1" x2="95.5" y2="851"/>
	<polyline class="st11" points="268.4,1094.9 314.3,1054.6 343.7,1086.5 313.7,1114 373.8,1179.4 	"/>
	
		<ellipse transform="matrix(0.7224 -0.6915 0.6915 0.7224 -96.7474 429.9768)" class="st13" cx="487.1" cy="335.5" rx="39.8" ry="39.8"/>
	<text transform="matrix(1 0 0 1 560.2112 330.2415)" class="st14 st15">Mure fra den ældste borg</text>
	<text transform="matrix(1 0 0 1 416.6649 741.1913)" class="st14 st15">Borggård</text>
	<text transform="matrix(1 0 0 1 385.4804 996.5109)" class="st14 st16">Mødding</text>
	<text transform="matrix(1 0 0 1 554.9626 1234.8088)" class="st14 st17">Latrin</text>
	<text transform="matrix(1 0 0 1 691.1329 1122.0428)" class="st14 st15">Forgård</text>
	<text transform="matrix(1 0 0 1 876.2395 1245.4468)" class="st14 st15">Porthus</text>
	<text transform="matrix(1 0 0 1 732.2755 917.0806)" class="st14 st15">Tårn</text>
	<text transform="matrix(1 0 0 1 769.853 1424.1635)" class="st14 st16">Vindebro</text>
	<g>
		<g>
			<polygon class="st18" points="28.5,718.6 62.2,718.6 62.2,754.8 27.4,754.8 50.2,736.8 			"/>
			<polygon class="st18" points="288.4,718.6 254.8,718.6 254.8,754.8 289.6,754.8 266.8,736.8 			"/>
			<rect x="55.6" y="710.4" class="st19" width="207.2" height="36.1"/>
		</g>
		<text transform="matrix(1 0 0 1 61.7781 736.8701)" class="st14 st16">Skriverstuefløj</text>
	</g>
	<g>
		<g>
			<polygon class="st18" points="547.6,478.2 581.3,478.2 581.3,514.4 546.5,514.4 569.3,496.4 			"/>
			<polygon class="st18" points="715.4,478.2 681.7,478.2 681.7,514.4 716.5,514.4 693.8,496.4 			"/>
			<rect x="574.7" y="470" class="st20" width="113.7" height="36.1"/>
		</g>
		<text transform="matrix(1 0 0 1 583.0883 496.9216)" class="st14 st16">Østfløj</text>
	</g>
	<g>
		<g>
			<polygon class="st18" points="636.3,623.7 670,623.7 670,659.9 635.1,659.9 657.9,641.9 			"/>
			<polygon class="st18" points="825.3,623.7 791.6,623.7 791.6,659.9 826.4,659.9 803.7,641.9 			"/>
			<rect x="663.8" y="615.5" class="st21" width="134.5" height="36.1"/>
		</g>
		<text transform="matrix(1 0 0 1 672.6937 641.3583)" class="st14 st16">Kapel sal</text>
	</g>
	<g>
		<g>
			<polygon class="st18" points="143.8,1025.2 177.5,1025.2 177.5,1061.4 142.7,1061.4 165.5,1043.4 			"/>
			<polygon class="st18" points="381,1025.2 347.4,1025.2 347.4,1061.4 382.2,1061.4 359.4,1043.4 			"/>
			<rect x="170.9" y="1017" class="st18" width="183.3" height="36.1"/>
		</g>
		<text transform="matrix(1 0 0 1 189.6804 1042.7487)" class="st14 st16">Køkkenfløj</text>
	</g>
	<g>
		<g>
			<polygon class="st18" points="510.2,1022.6 543.9,1022.6 543.9,1058.8 509,1058.8 531.8,1040.8 			"/>
			<polygon class="st18" points="747.4,1022.6 713.7,1022.6 713.7,1058.8 748.5,1058.8 725.7,1040.8 			"/>
			<rect x="537.2" y="1014.4" class="st18" width="183.3" height="36.1"/>
		</g>
		<text transform="matrix(1 0 0 1 542.2089 1040.8179)" class="st14 st16">Fruerstuefløj</text>
	</g>
</g>
</svg>
